<svg height="512" viewBox="0 0 512 512" width="512" xmlns="http://www.w3.org/2000/svg"><g><g fill="#57a4ff"><path d="m174.18 288.79.81.81a175.979 175.979 0 0 0 33.84 26.37l.03.02c2.38 1.42 4.78 2.79 7.21 4.08a176.07 176.07 0 0 0 207.52-30.76l-107.48-107.48-33.94-33.94-107.48-107.48a175.992 175.992 0 0 0 -.51 248.38z"/><path d="m331.74 109.34a23.993 23.993 0 1 0 7-18.02 23.915 23.915 0 0 0 -7 18.02z"/><path d="m64 496h256l-16-32h-224z"/></g><g fill="#004fac"><path d="m429.25 294.97a8.015 8.015 0 0 0 0-11.32l-102.49-102.49 31.9-41.01a32 32 0 1 0 -34.81-34.81l-41.01 31.9-102.49-102.49a8.015 8.015 0 0 0 -11.32 0c-60 60.01-69.8 151.48-29.43 221.79l-57.84 58.82a7.988 7.988 0 0 0 .05 11.26l45.25 45.26a8.008 8.008 0 0 0 5.66 2.34h.03a7.985 7.985 0 0 0 5.67-2.39l18.65-18.96-12.18 103.13h-64.89a8.011 8.011 0 0 0 -7.16 4.42l-16 32a8 8 0 0 0 7.16 11.58h256a8 8 0 0 0 7.16-11.58l-16-32a8.011 8.011 0 0 0 -7.16-4.42h-64.84l-13.56-122.47a184.5 184.5 0 0 0 203.65-38.56zm-84.85-197.99a15.982 15.982 0 1 1 -4.69 11.31 15.936 15.936 0 0 1 4.69-11.31zm-17.14 25.97a32.031 32.031 0 0 0 13.79 13.79l-25.69 33.02-21.12-21.12zm-194.59 231.91-33.94-33.94 47.73-48.53 22.56 22.56c.01.01.01.01.01.02s.01 0 .02.01l11.35 11.35zm61-39.21q7.26 5.085 14.9 9.38l14.5 130.97h-62.01l14.32-121.75zm105.39 156.35 8 16h-230.12l8-16zm-118.71-188.35c-63.61-63.61-65.45-165.95-5.53-231.8l135.64 135.64h.01l101.68 101.69c-65.85 59.92-168.19 58.08-231.8-5.53z"/><path d="m397.381 91.876a8 8 0 0 0 9.8-5.656 24.007 24.007 0 0 0 -29.4-29.4 8 8 0 0 0 4.143 15.455 8.006 8.006 0 0 1 9.8 9.8 8 8 0 0 0 5.657 9.801z"/><path d="m371.572 33.632a8 8 0 1 0 4.128 15.459 32.016 32.016 0 0 1 39.21 39.21 8 8 0 1 0 15.459 4.127 48.015 48.015 0 0 0 -58.8-58.8z"/><path d="m434.906 29.093a72.253 72.253 0 0 0 -69.552-18.646 8 8 0 1 0 4.131 15.453 56.025 56.025 0 0 1 68.615 68.615 8 8 0 1 0 15.457 4.131 72.253 72.253 0 0 0 -18.651-69.553z"/></g></g></svg>